<?xml version="1.0" encoding="UTF-8" standalone="no"?>
<!-- Generator: Adobe Illustrator 14.0.0, SVG Export Plug-In . SVG Version: 6.00 Build 43363)  -->

<svg
   xmlns:dc="http://purl.org/dc/elements/1.1/"
   xmlns:cc="http://creativecommons.org/ns#"
   xmlns:rdf="http://www.w3.org/1999/02/22-rdf-syntax-ns#"
   xmlns:svg="http://www.w3.org/2000/svg"
   xmlns="http://www.w3.org/2000/svg"
   xmlns:sodipodi="http://sodipodi.sourceforge.net/DTD/sodipodi-0.dtd"
   xmlns:inkscape="http://www.inkscape.org/namespaces/inkscape"
   version="1.1"
   id="Layer_1"
   x="0px"
   y="0px"
   width="600"
   height="200"
   viewBox="0 0 600 200"
   enable-background="new 0 0 1440 1440"
   xml:space="preserve"
   inkscape:version="0.48.2 r9819"
   sodipodi:docname="logo_banner.svg"
   inkscape:export-filename="C:\Users\QAJarosz\giraffe\art\logo_banner.png"
   inkscape:export-xdpi="90"
   inkscape:export-ydpi="90"><metadata
   id="metadata771"><rdf:RDF><cc:Work
       rdf:about=""><dc:format>image/svg+xml</dc:format><dc:type
         rdf:resource="http://purl.org/dc/dcmitype/StillImage" /><dc:title></dc:title></cc:Work></rdf:RDF></metadata><defs
   id="defs769">


</defs><sodipodi:namedview
   pagecolor="#ffffff"
   bordercolor="#666666"
   borderopacity="1"
   objecttolerance="10"
   gridtolerance="10"
   guidetolerance="10"
   inkscape:pageopacity="0"
   inkscape:pageshadow="2"
   inkscape:window-width="1840"
   inkscape:window-height="1173"
   id="namedview767"
   showgrid="false"
   inkscape:zoom="1"
   inkscape:cx="300"
   inkscape:cy="100"
   inkscape:window-x="1911"
   inkscape:window-y="-9"
   inkscape:window-maximized="1"
   inkscape:current-layer="Layer_1" />





<g
   id="g3006"
   transform="matrix(0.40774743,0,0,0.40774743,-277.26854,3.9291451)"><path
     d="m 928.12195,136.67594 c -8.69225,-5.81212 -17.62666,-10.69881 -26.6,-14.68167 39.61242,-17.11638 30.81639,-64.884802 30.81639,-64.884802 -35.99714,-9.574443 -58.55806,29.756884 -68.66442,53.532982 -2.16225,-0.34163 -4.30287,-0.61408 -6.43485,-0.84327 l 9.86851,-65.139948 c 0,0 3.58501,-0.635701 7.31705,-13.349731 4.12557,-14.084896 -18.66887,-20.390017 -31.98833,-9.725801 -13.3281,10.664217 6.42621,24.450723 6.42621,24.450723 l -3.49419,63.072837 c -9.00361,-0.0519 -17.5445,1.01193 -25.39347,3.15256 l -8.51926,-62.882558 c 0,0 3.26067,-1.656284 3.26067,-14.92385 0,-14.694651 -23.61609,-14.102194 -33.38946,0 -9.76905,14.09787 13.02971,21.561957 13.02971,21.561957 l 14.12382,60.400291 c -0.66597,0.30704 -1.33195,0.62273 -1.9763,0.94707 -11.03612,-20.653816 -34.3668,-52.36105 -70.90882,-44.343427 0,0 -5.68672,25.544822 12.074,43.638527 l -2.86714,13.19405 18.08073,11.12262 -20.86139,-2.78066 1.39249,20.86139 h 19.4689 l -19.4689,8.34629 -1.39249,23.64204 20.86139,-4.17315 -19.4689,12.51943 v 22.24955 l 11.81886,-3.47689 -13.21135,13.21134 -1.38816,22.25388 12.5151,1.38817 -11.12694,5.5613 -1.38816,22.25388 11.12261,-1.39249 -11.12261,8.34629 -3.48122,25.03453 9.0382,2.78065 -8.34196,3.48122 -1.38816,34.76898 10.43069,-2.08441 -11.12694,9.73445 v 27.81519 l 5.56131,2.08441 -3.4769,3.47689 -4.17746,31.98401 8.34628,2.78497 -6.94947,2.08441 c 0,0 -3.44663,68.87199 -7.42949,120.10434 -13.77786,77.37828 -30.35367,148.82767 -49.50255,193.80247 l -253.20813,12.91728 c -2.612,-0.41083 -5.18507,-0.70489 -7.74085,-0.94274 -0.77841,-0.0735 -1.54385,-0.11676 -2.31793,-0.17731 -1.82927,-0.12973 -3.64556,-0.22487 -5.44023,-0.27244 -0.7957,-0.0216 -1.59141,-0.0432 -2.37847,-0.0476 -2.04549,-0.013 -4.06936,0.0303 -6.0716,0.12974 -0.4238,0.0216 -0.85193,0.0216 -1.26708,0.0476 -2.42172,0.15135 -4.80884,0.3892 -7.16137,0.70057 -0.55354,0.0778 -1.0941,0.1773 -1.64763,0.25947 -1.82062,0.27244 -3.61961,0.59245 -5.4013,0.96003 -0.66598,0.13839 -1.3233,0.2811 -1.9763,0.43245 -1.81197,0.41516 -3.60231,0.8822 -5.36238,1.39682 -0.44975,0.12973 -0.90382,0.25082 -1.34924,0.38488 -2.24874,0.68759 -4.45424,1.45303 -6.61649,2.30928 -0.14271,0.0562 -0.27244,0.12541 -0.41515,0.17731 -1.98495,0.7957 -3.93097,1.6606 -5.84673,2.59037 -0.44974,0.21623 -0.89949,0.44542 -1.34924,0.67462 -1.69953,0.85625 -3.36446,1.7644 -4.99912,2.72011 -0.35029,0.20326 -0.70057,0.40218 -1.05086,0.60976 -3.98718,2.41307 -7.7841,5.12886 -11.37775,8.13006 -0.22488,0.18595 -0.4411,0.38055 -0.66165,0.57083 -1.59142,1.35357 -3.13959,2.76336 -4.64884,4.23369 -0.23352,0.2292 -0.47137,0.45407 -0.70489,0.68759 -3.42501,3.40338 -6.64244,7.08786 -9.61769,11.05775 -0.0173,0.0173 -0.0303,0.0389 -0.0476,0.0605 -1.43574,1.91576 -2.80228,3.90503 -4.1299,5.94619 -0.16001,0.25082 -0.32001,0.49732 -0.47569,0.74814 -1.306,2.04981 -2.56443,4.14719 -3.75799,6.31809 -0.013,0.026 -0.0303,0.0433 -0.0389,0.0692 -45.93483,70.93909 -86.97866,146.7692 -170.72693,179.8992 l -0.73084,-1.66494 -31.19262,-8.45439 -0.8649,13.57028 10.75936,2.09305 -14.40059,5.16778 0.35461,4.1862 2.03252,5.5007 13.95948,-4.3288 -14.42653,6.3873 11.6848,12.2599 12.02211,-13.6481 -5.52239,8.7744 12.34645,7.4771 9.64363,-19.8841 c 0.44975,-0.16 0.87788,-0.2811 1.34492,-0.5103 70.19529,-28.77089 105.09833,-69.53363 144.59831,-128.99983 0.95139,0.0995 1.92873,0.2811 1.96765,6.17539 0,46.96839 21.7825,88.82523 55.76443,116.09994 -4.89101,121.5011 -16.43743,377.4683 -16.81366,385.754 h -0.013 l -0.69625,13.9033 61.89225,-0.2292 -2.78498,-13.6655 h -0.0649 c -17.87748,-50.0993 -11.2437,-256.8493 -6.36566,-364.724 10.08905,4.264 20.75327,7.4036 31.83264,9.3626 7.31273,121.6093 11.03612,353.1992 11.15721,360.9271 l 0,0 v 0.01 c 0,0.1298 0,0.199 0,0.199 h 0.013 l 0.97734,12.541 51.45723,-3.7104 c 0,0 -1.85521,-14.1455 -2.78498,-14.6039 l -0.0865,0.01 c -20.9868,-45.5759 -27.14921,-241.7568 -28.95685,-353.0479 h 250.18097 c 7.71058,0 15.01466,-0.5881 21.92089,-1.7211 -4.55802,121.6482 -14.62978,363.5088 -14.95844,371.4529 h -0.013 l -2.43037,13.5573 58.06506,-1.6044 -2.78497,-11.9529 h -0.0606 c -17.55747,-53.3211 -8.98631,-287.6095 -4.67478,-382.4674 6.95379,-3.7061 13.31946,-8.1387 19.07537,-13.2503 7.01434,111.9267 10.58637,376.184 10.69881,384.5951 h 0 l -1.04653,14.2492 46.94245,-0.6962 -4.17314,-19.123 -0.0735,0.01 c -22.02035,-56.9234 -24.6064,-348.8098 -24.91777,-416.73913 11.27397,-24.12639 16.64933,-53.45947 16.64933,-85.12346 -0.009,-0.0605 -0.0173,-0.12109 -0.026,-0.18595 l 0.026,0.013 c -0.0389,-0.18163 -0.0735,-0.37191 -0.10812,-0.56219 -1.52654,-10.38312 -3.15256,-20.12189 -4.9256,-29.24227 -23.25716,-168.85442 11.55939,-481.18711 23.91881,-581.39875 53.45514,32.72782 113.95922,31.53426 137.49748,-3.68015 24.43341,-36.55067 -0.23785,-95.92173 -55.11143,-132.60647 z"
     id="path267"
     inkscape:connector-curvature="0"
     style="fill:#ffdb58" /><g
     style="fill:#3c2517;fill-opacity:1"
     id="g3005"><g
       id="g269"
       transform="matrix(4.3245,0,0,4.3245,-0.90606267,-1276.8431)"
       style="fill:#3c2517;fill-opacity:1">
<g
   id="g271"
   style="fill:#3c2517;fill-opacity:1">
<path
   style="fill:#3c2517;fill-opacity:1"
   inkscape:connector-curvature="0"
   id="path273"
   d="m 170.186,395.557 c 0,0 -0.797,15.926 -1.718,27.773 6.877,-38.621 10.739,-83.64 11.051,-87.352 -0.323,-3.357 0.333,-6.52 2.102,-9.166 0.165,-0.245 0.337,-0.482 0.517,-0.714 -4.425,-0.534 -7.245,-2.035 -9.039,-3.862 l -0.663,3.051 4.181,2.572 -4.824,-0.643 0.322,4.825 h 4.502 l -4.502,1.929 -0.322,5.467 4.824,-0.965 -4.502,2.895 v 5.145 l 2.733,-0.804 -3.055,3.055 -0.321,5.146 2.894,0.321 -2.573,1.286 -0.321,5.146 2.572,-0.322 -2.572,1.93 -0.805,5.789 2.09,0.643 -1.929,0.804 -0.321,8.04 2.412,-0.482 -2.573,2.251 v 6.432 l 1.286,0.482 -0.804,0.804 -0.966,7.396 1.93,0.644 -1.606,0.484 z" />
</g>
<g
   id="g275"
   style="fill:#3c2517;fill-opacity:1">
<path
   style="fill:#3c2517;fill-opacity:1"
   inkscape:connector-curvature="0"
   id="path277"
   d="m 143.139,487.73 c -6.557,7.383 -7.801,16.981 -2.78,21.44 5.021,4.459 14.407,2.087 20.962,-5.295 6.558,-7.383 7.802,-16.983 2.781,-21.442 -5.021,-4.457 -14.406,-2.088 -20.963,5.297 z" />
</g>
<g
   id="g279"
   style="fill:#3c2517;fill-opacity:1">
<path
   style="fill:#3c2517;fill-opacity:1"
   inkscape:connector-curvature="0"
   id="path281"
   d="m 187.57,521.211 c -0.003,-0.646 -0.006,-1.242 -0.009,-1.773 2.607,-5.579 3.85,-12.362 3.85,-19.684 -0.002,-0.014 -0.004,-0.028 -0.006,-0.043 l 0.006,0.003 c -0.009,-0.042 -0.017,-0.086 -0.025,-0.13 -0.353,-2.401 -0.729,-4.653 -1.139,-6.762 -0.075,-0.546 -0.146,-1.101 -0.217,-1.659 -0.535,-0.045 -1.076,-0.057 -1.621,0.004 -6.178,0.69 -10.418,8.119 -9.469,16.592 0.722,6.462 4.255,11.652 8.63,13.452 z" />
</g>
<g
   id="g283"
   style="fill:#3c2517;fill-opacity:1">
<path
   style="fill:#3c2517;fill-opacity:1"
   inkscape:connector-curvature="0"
   id="path285"
   d="m 188.619,447.092 c 0.167,-6.265 0.441,-12.623 0.79,-18.932 -0.605,-0.141 -1.227,-0.193 -1.857,-0.122 -3.932,0.44 -6.643,5.062 -6.054,10.323 0.536,4.782 3.612,8.433 7.121,8.731 z" />
</g>
<g
   id="g287"
   style="fill:#3c2517;fill-opacity:1">
<path
   style="fill:#3c2517;fill-opacity:1"
   inkscape:connector-curvature="0"
   id="path289"
   d="m 169.843,458.672 c 5.348,-6.022 6.237,-13.964 1.986,-17.74 -1.701,-1.51 -3.97,-2.11 -6.418,-1.919 -2.123,9.885 -4.468,18.778 -7.027,25.686 3.797,-0.129 8.106,-2.252 11.459,-6.027 z" />
</g>
<g
   id="g291"
   style="fill:#3c2517;fill-opacity:1">
<path
   style="fill:#3c2517;fill-opacity:1"
   inkscape:connector-curvature="0"
   id="path293"
   d="m 116.157,483.997 c 8.703,0 15.758,-4.032 15.758,-9.004 0,-2.031 -1.19,-3.897 -3.174,-5.404 l -26.65,1.36 c -1.074,1.217 -1.693,2.587 -1.693,4.044 0,4.972 7.055,9.004 15.759,9.004 z" />
</g>
<g
   id="g295"
   style="fill:#3c2517;fill-opacity:1">
<path
   style="fill:#3c2517;fill-opacity:1"
   inkscape:connector-curvature="0"
   id="path297"
   d="m 129.157,516.456 c -6.106,-5.95 -14.573,-7.164 -18.911,-2.71 -4.339,4.452 -2.905,12.884 3.201,18.834 0.594,0.578 1.215,1.098 1.848,1.586 h 17.966 c 3.17,-4.643 1.524,-12.227 -4.104,-17.71 z" />
</g>
<g
   id="g299"
   style="fill:#3c2517;fill-opacity:1">
<path
   style="fill:#3c2517;fill-opacity:1"
   inkscape:connector-curvature="0"
   id="path301"
   d="m 82.815,526.117 c 5.285,-1.686 8.73,-8.517 7.866,-16.232 -0.948,-8.472 -6.725,-14.779 -12.903,-14.088 -3.003,0.335 -5.54,2.272 -7.254,5.136 0.342,10.112 5.045,19.108 12.291,25.184 z" />
</g>
<g
   id="g303"
   style="fill:#3c2517;fill-opacity:1">
<path
   style="fill:#3c2517;fill-opacity:1"
   inkscape:connector-curvature="0"
   id="path305"
   d="m 174.936,379.441 c -0.807,6.534 -1.714,13.435 -2.722,20.436 1.122,1.115 2.394,1.701 3.678,1.557 3.383,-0.379 5.569,-5.649 4.883,-11.771 -0.58,-5.191 -3.042,-9.316 -5.839,-10.222 z" />
</g>
<g
   id="g307"
   style="fill:#3c2517;fill-opacity:1">
<path
   style="fill:#3c2517;fill-opacity:1"
   inkscape:connector-curvature="0"
   id="path309"
   d="m 210.851,361.938 c -0.316,-0.004 -2.951,-0.057 -5.78,-1.411 l 0,0 c -2.917,-1.383 -6.041,-4.262 -6.75,-9.749 l 0,0 c -0.047,-0.352 0.2,-0.675 0.552,-0.721 l 0,0 c 0.352,-0.046 0.675,0.202 0.722,0.553 l 0,0 c 0.681,5.054 3.399,7.475 6.033,8.757 l 0,0 c 2.633,1.269 5.184,1.287 5.246,1.284 l 0,0 c 0.039,10e-4 0.064,0.003 0.084,0.006 l 0,0 h 0 c 0.352,0.044 0.603,0.366 0.558,0.718 l 0,0 c -0.041,0.325 -0.318,0.563 -0.637,0.563 l 0,0 c -0.009,0 -0.02,0 -0.028,0 l 0,0 z" />
</g>
<g
   id="g311"
   style="fill:#3c2517;fill-opacity:1">
<path
   style="fill:#3c2517;fill-opacity:1"
   inkscape:connector-curvature="0"
   id="path313"
   d="m 26.553,526.719 3.33,-1.196 -2.488,-0.483 0.2,-3.139 7.213,1.954 1.728,3.907 -2.479,5.11 -2.855,-1.729 1.277,-2.028 -2.78,3.156 -2.702,-2.835 3.336,-1.478 -3.228,1.001 -0.47,-1.272 -0.082,-0.968 z m 178.506,-197.45 c 0.325,1.562 1.448,2.652 2.506,2.431 1.058,-0.222 1.652,-1.667 1.328,-3.23 -0.326,-1.563 -1.447,-2.651 -2.507,-2.431 -1.059,0.221 -1.653,1.668 -1.327,3.23 z m -8.656,1.624 c 0.72,1.47 2.13,2.257 3.149,1.759 1.019,-0.5 1.262,-2.096 0.542,-3.564 -0.721,-1.472 -2.13,-2.258 -3.148,-1.761 -1.019,0.501 -1.263,2.095 -0.543,3.566 z m 29.583,18.43 c 0.2,0.962 0.922,1.625 1.611,1.482 0.69,-0.144 1.087,-1.04 0.888,-2.001 -0.201,-0.962 -0.922,-1.625 -1.613,-1.482 -0.689,0.144 -1.086,1.04 -0.886,2.001 z m -5.541,1.246 c 0.438,0.894 1.25,1.396 1.813,1.121 0.564,-0.276 0.666,-1.225 0.229,-2.119 -0.438,-0.895 -1.25,-1.396 -1.813,-1.122 -0.563,0.278 -0.666,1.225 -0.229,2.12 z m -36.753,266.521 -0.242,3.296 10.855,-0.161 -0.965,-4.422 -9.648,1.287 z m -18.01,2.573 -0.563,3.135 13.427,-0.371 -0.644,-2.764 -12.22,0 0,0 z m -64.228,-2.573 0.23,2.949 11.899,-0.858 c 0,0 -0.429,-3.27 -0.643,-3.377 l -11.486,1.286 z m -8.453,-1.287 H 79.494 l -0.161,3.214 14.312,-0.052 -0.644,-3.162 z" />
</g>
</g></g></g><path
   style="fill:#eaebeb;stroke:#000000;stroke-width:1px;stroke-linecap:butt;stroke-linejoin:miter;stroke-opacity:1;fill-opacity:1"
   d="M 183.1875 45 C 169.94439 45 159.28125 55.663139 159.28125 68.90625 L 159.28125 89.84375 C 144.06763 106.01675 123.54498 118.71049 101.0625 120.34375 C 125.81651 126.29306 141.82191 123.35813 159.28125 120.8125 L 159.28125 130.59375 C 159.28125 143.83686 169.94439 154.5 183.1875 154.5 L 565.96875 154.5 C 579.21186 154.5 589.875 143.83686 589.875 130.59375 L 589.875 68.90625 C 589.875 55.663139 579.21186 45 565.96875 45 L 183.1875 45 z "
   id="path3803" />















<text
   xml:space="preserve"
   style="font-size:40px;font-style:normal;font-variant:normal;font-weight:normal;font-stretch:normal;line-height:125%;letter-spacing:0px;word-spacing:0px;fill:#000000;fill-opacity:1;stroke:none;font-family:GungsuhChe;-inkscape-font-specification:GungsuhChe"
   x="219.57143"
   y="110.5"
   id="text3807"
   sodipodi:linespacing="125%"><tspan
     sodipodi:role="line"
     id="tspan3809"
     x="219.57143"
     y="110.5">Project Giraffe</tspan></text>
</svg>